<svg height="119" width="226" xmlns="http://www.w3.org/2000/svg" xmlns:xlink="http://www.w3.org/1999/xlink"><path d="M 4 12  L 4 12 L 8 16 L 12 16 L 16 16" style="stroke: rgb(28, 32, 38); stroke-width: 1.6336377735653973; fill: none;" /><path d="M 4 16  L 4 16 L 8 20 L 8 24 L 12 28 L 16 32 L 20 36 L 24 40 L 28 44 L 32 48 L 32 52 L 32 56" style="stroke: rgb(28, 32, 38); stroke-width: 1.6336377735653973; fill: none;" /><path d="M 4 20  L 4 20 L 4 24 L 8 28 L 12 32 L 16 36 L 20 40 L 24 44 L 28 48 L 28 52 L 28 56 L 28 60 L 28 64 L 28 68" style="stroke: rgb(28, 32, 38); stroke-width: 1.6336377735653973; fill: none;" /><path d="M 4 28  L 4 28 L 8 32 L 12 36 L 16 40 L 20 44 L 24 48" style="stroke: rgb(28, 32, 38); stroke-width: 1.6336377735653973; fill: none;" /><path d="M 4 32  L 4 32 L 8 36 L 12 40 L 16 44" style="stroke: rgb(28, 32, 38); stroke-width: 1.6336377735653973; fill: none;" /><path d="M 4 60  L 4 60 L 8 64 L 12 68 L 16 68 L 20 68 L 24 68" style="stroke: rgb(28, 32, 38); stroke-width: 1.6336377735653973; fill: none;" /><path d="M 4 64  L 4 64 L 8 68" style="stroke: rgb(28, 32, 38); stroke-width: 1.6336377735653973; fill: none;" /><path d="M 4 68  L 4 68" style="stroke: rgb(28, 32, 38); stroke-width: 1.6336377735653973; fill: none;" /><path d="M 8 8  L 8 8 L 12 12 L 16 12 L 20 12 L 24 16 L 28 16" style="stroke: rgb(28, 32, 38); stroke-width: 1.6336377735653973; fill: none;" /><path d="M 8 12  L 8 12" style="stroke: rgb(28, 32, 38); stroke-width: 1.6336377735653973; fill: none;" /><path d="M 8 60  L 8 60 L 12 64 L 16 64 L 20 64 L 24 64" style="stroke: rgb(28, 32, 38); stroke-width: 1.6336377735653973; fill: none;" /><path d="M 12 8  L 12 8 L 16 8 L 20 8 L 24 12 L 28 12" style="stroke: rgb(28, 32, 38); stroke-width: 1.6336377735653973; fill: none;" /><path d="M 16 60  L 16 60 L 20 60 L 24 60" style="stroke: rgb(28, 32, 38); stroke-width: 1.6336377735653973; fill: none;" /><path d="M 24 8  L 24 8 L 28 8" style="stroke: rgb(28, 32, 38); stroke-width: 1.6336377735653973; fill: none;" /><path d="M 24 36  L 24 36 L 28 40" style="stroke: rgb(28, 32, 38); stroke-width: 1.6336377735653973; fill: none;" /><path d="M 36 28  L 36 28 L 40 32 L 44 36 L 44 40 L 48 44 L 48 48 L 48 52 L 48 56 L 52 60 L 56 64 L 56 68" style="stroke: rgb(28, 32, 38); stroke-width: 1.6336377735653973; fill: none;" /><path d="M 36 32  L 36 32 L 40 36 L 40 40 L 44 44 L 44 48 L 44 52 L 44 56 L 48 60 L 52 64 L 52 68" style="stroke: rgb(28, 32, 38); stroke-width: 1.6336377735653973; fill: none;" /><path d="M 40 28  L 40 28 L 44 32" style="stroke: rgb(28, 32, 38); stroke-width: 1.6336377735653973; fill: none;" /><path d="M 44 28  L 44 28" style="stroke: rgb(28, 32, 38); stroke-width: 1.6336377735653973; fill: none;" /><path d="M 48 64  L 48 64 L 48 68" style="stroke: rgb(28, 32, 38); stroke-width: 1.6336377735653973; fill: none;" /><path d="M 56 44  L 56 44 L 60 48 L 60 52 L 60 56" style="stroke: rgb(28, 32, 38); stroke-width: 1.6336377735653973; fill: none;" /><path d="M 56 48  L 56 48 L 56 52 L 56 56 L 56 60" style="stroke: rgb(28, 32, 38); stroke-width: 1.6336377735653973; fill: none;" /><path d="M 60 28  L 60 28 L 64 32 L 68 32" style="stroke: rgb(28, 32, 38); stroke-width: 1.6336377735653973; fill: none;" /><path d="M 60 32  L 60 32 L 64 36" style="stroke: rgb(28, 32, 38); stroke-width: 1.6336377735653973; fill: none;" /><path d="M 60 36  L 60 36 L 60 40 L 60 44" style="stroke: rgb(28, 32, 38); stroke-width: 1.6336377735653973; fill: none;" /><path d="M 64 28  L 64 28 L 68 28" style="stroke: rgb(28, 32, 38); stroke-width: 1.6336377735653973; fill: none;" /><path d="M 76 32  L 76 32 L 80 36 L 80 40 L 80 44" style="stroke: rgb(28, 32, 38); stroke-width: 1.6336377735653973; fill: none;" /><path d="M 76 36  L 76 36 L 76 40 L 76 44 L 76 48 L 76 52 L 80 56 L 84 60 L 88 64 L 92 68 L 96 72 L 100 76 L 100 80" style="stroke: rgb(28, 32, 38); stroke-width: 1.6336377735653973; fill: none;" /><path d="M 76 56  L 76 56 L 80 60 L 84 64 L 88 68" style="stroke: rgb(28, 32, 38); stroke-width: 1.6336377735653973; fill: none;" /><path d="M 76 60  L 76 60 L 80 64 L 84 68" style="stroke: rgb(28, 32, 38); stroke-width: 1.6336377735653973; fill: none;" /><path d="M 76 64  L 76 64 L 80 68" style="stroke: rgb(28, 32, 38); stroke-width: 1.6336377735653973; fill: none;" /><path d="M 76 80  L 76 80 L 80 84 L 84 88 L 88 88 L 92 88" style="stroke: rgb(28, 32, 38); stroke-width: 1.6336377735653973; fill: none;" /><path d="M 76 84  L 76 84 L 80 88" style="stroke: rgb(28, 32, 38); stroke-width: 1.6336377735653973; fill: none;" /><path d="M 76 88  L 76 88" style="stroke: rgb(28, 32, 38); stroke-width: 1.6336377735653973; fill: none;" /><path d="M 80 28  L 80 28 L 84 32 L 88 32 L 92 32 L 96 36 L 100 40 L 100 44 L 100 48 L 100 52 L 100 56 L 100 60 L 100 64 L 100 68 L 100 72" style="stroke: rgb(28, 32, 38); stroke-width: 1.6336377735653973; fill: none;" /><path d="M 80 32  L 80 32" style="stroke: rgb(28, 32, 38); stroke-width: 1.6336377735653973; fill: none;" /><path d="M 84 28  L 84 28 L 88 28 L 92 28 L 96 32 L 100 36" style="stroke: rgb(28, 32, 38); stroke-width: 1.6336377735653973; fill: none;" /><path d="M 84 84  L 84 84 L 88 84 L 92 84 L 96 84" style="stroke: rgb(28, 32, 38); stroke-width: 1.6336377735653973; fill: none;" /><path d="M 92 60  L 92 60 L 96 64" style="stroke: rgb(28, 32, 38); stroke-width: 1.6336377735653973; fill: none;" /><path d="M 92 64  L 92 64" style="stroke: rgb(28, 32, 38); stroke-width: 1.6336377735653973; fill: none;" /><path d="M 92 80  L 92 80 L 96 80" style="stroke: rgb(28, 32, 38); stroke-width: 1.6336377735653973; fill: none;" /><path d="M 96 28  L 96 28 L 100 32" style="stroke: rgb(28, 32, 38); stroke-width: 1.6336377735653973; fill: none;" /><path d="M 96 40  L 96 40" style="stroke: rgb(28, 32, 38); stroke-width: 1.6336377735653973; fill: none;" /><path d="M 96 52  L 96 52 L 96 56 L 96 60" style="stroke: rgb(28, 32, 38); stroke-width: 1.6336377735653973; fill: none;" /><path d="M 96 76  L 96 76" style="stroke: rgb(28, 32, 38); stroke-width: 1.6336377735653973; fill: none;" /><path d="M 100 28  L 100 28" style="stroke: rgb(28, 32, 38); stroke-width: 1.6336377735653973; fill: none;" /><path d="M 116 28  L 116 28 L 120 32 L 120 36 L 120 40 L 120 44 L 120 48 L 120 52 L 120 56 L 124 60 L 128 64 L 132 68 L 136 68 L 140 68 L 144 68" style="stroke: rgb(28, 32, 38); stroke-width: 1.6336377735653973; fill: none;" /><path d="M 116 32  L 116 32 L 116 36 L 116 40 L 116 44 L 116 48 L 116 52" style="stroke: rgb(28, 32, 38); stroke-width: 1.6336377735653973; fill: none;" /><path d="M 120 28  L 120 28" style="stroke: rgb(28, 32, 38); stroke-width: 1.6336377735653973; fill: none;" /><path d="M 120 60  L 120 60 L 124 64 L 128 68" style="stroke: rgb(28, 32, 38); stroke-width: 1.6336377735653973; fill: none;" /><path d="M 120 64  L 120 64 L 124 68" style="stroke: rgb(28, 32, 38); stroke-width: 1.6336377735653973; fill: none;" /><path d="M 120 68  L 120 68" style="stroke: rgb(28, 32, 38); stroke-width: 1.6336377735653973; fill: none;" /><path d="M 132 64  L 132 64 L 136 64 L 140 64 L 144 64" style="stroke: rgb(28, 32, 38); stroke-width: 1.6336377735653973; fill: none;" /><path d="M 136 60  L 136 60 L 140 60 L 144 60" style="stroke: rgb(28, 32, 38); stroke-width: 1.6336377735653973; fill: none;" /><path d="M 140 28  L 140 28 L 144 32 L 144 36 L 144 40 L 144 44 L 144 48 L 144 52 L 144 56" style="stroke: rgb(28, 32, 38); stroke-width: 1.6336377735653973; fill: none;" /><path d="M 140 32  L 140 32 L 140 36 L 140 40 L 140 44 L 140 48 L 140 52 L 140 56" style="stroke: rgb(28, 32, 38); stroke-width: 1.6336377735653973; fill: none;" /><path d="M 144 28  L 144 28" style="stroke: rgb(28, 32, 38); stroke-width: 1.6336377735653973; fill: none;" /><path d="M 156 28  L 156 28 L 160 32 L 164 36 L 164 40 L 164 44" style="stroke: rgb(28, 32, 38); stroke-width: 1.6336377735653973; fill: none;" /><path d="M 156 32  L 156 32 L 160 36 L 160 40 L 160 44 L 160 48 L 160 52 L 160 56 L 160 60 L 160 64 L 160 68" style="stroke: rgb(28, 32, 38); stroke-width: 1.6336377735653973; fill: none;" /><path d="M 156 36  L 156 36 L 156 40 L 156 44 L 156 48 L 156 52 L 156 56 L 156 60 L 156 64 L 156 68" style="stroke: rgb(28, 32, 38); stroke-width: 1.6336377735653973; fill: none;" /><path d="M 160 28  L 160 28 L 164 32 L 168 32 L 172 32" style="stroke: rgb(28, 32, 38); stroke-width: 1.6336377735653973; fill: none;" /><path d="M 168 28  L 168 28 L 172 28" style="stroke: rgb(28, 32, 38); stroke-width: 1.6336377735653973; fill: none;" /><path d="M 180 28  L 180 28 L 184 32 L 188 36 L 192 40 L 192 44 L 192 48 L 192 52 L 192 56 L 192 60 L 196 64 L 200 68" style="stroke: rgb(28, 32, 38); stroke-width: 1.6336377735653973; fill: none;" /><path d="M 180 32  L 180 32 L 184 36 L 188 40 L 188 44 L 188 48 L 188 52 L 188 56 L 188 60 L 192 64 L 196 68" style="stroke: rgb(28, 32, 38); stroke-width: 1.6336377735653973; fill: none;" /><path d="M 184 16  L 184 16 L 188 20 L 192 24 L 196 28 L 200 32" style="stroke: rgb(28, 32, 38); stroke-width: 1.6336377735653973; fill: none;" /><path d="M 184 20  L 184 20 L 188 24 L 192 28 L 196 32" style="stroke: rgb(28, 32, 38); stroke-width: 1.6336377735653973; fill: none;" /><path d="M 184 24  L 184 24 L 188 28 L 192 32 L 192 36" style="stroke: rgb(28, 32, 38); stroke-width: 1.6336377735653973; fill: none;" /><path d="M 184 28  L 184 28 L 188 32" style="stroke: rgb(28, 32, 38); stroke-width: 1.6336377735653973; fill: none;" /><path d="M 184 40  L 184 40 L 184 44 L 184 48 L 184 52 L 184 56 L 184 60 L 188 64 L 192 68" style="stroke: rgb(28, 32, 38); stroke-width: 1.6336377735653973; fill: none;" /><path d="M 188 12  L 188 12 L 192 16 L 192 20" style="stroke: rgb(28, 32, 38); stroke-width: 1.6336377735653973; fill: none;" /><path d="M 188 16  L 188 16" style="stroke: rgb(28, 32, 38); stroke-width: 1.6336377735653973; fill: none;" /><path d="M 188 68  L 188 68" style="stroke: rgb(28, 32, 38); stroke-width: 1.6336377735653973; fill: none;" /><path d="M 192 12  L 192 12" style="stroke: rgb(28, 32, 38); stroke-width: 1.6336377735653973; fill: none;" /><path d="M 200 28  L 200 28" style="stroke: rgb(28, 32, 38); stroke-width: 1.6336377735653973; fill: none;" /><path d="M 200 64  L 200 64" style="stroke: rgb(28, 32, 38); stroke-width: 1.6336377735653973; fill: none;" /></svg>